<svg fill="none" height="512" viewBox="0 0 24 24" width="512" xmlns="http://www.w3.org/2000/svg"><g clip-rule="evenodd" fill="rgb(0,0,0)" fill-rule="evenodd"><path d="m2.2933 12.4787c.13876-.3902.56764-.5941.95792-.4554l7.99498 2.8427c.4876.1734 1.02.1734 1.5075 0l7.995-2.8427c.3903-.1387.8192.0652.9579.4554.1388.3903-.0651.8192-.4554.958l-7.995 2.8426c-.8126.2889-1.6999.2889-2.5125 0l-7.995-2.8426c-.39028-.1388-.59417-.5677-.4554-.958z"/><path d="m2.2933 16.7287c.13876-.3902.56764-.5941.95792-.4554l7.99498 2.8427c.4876.1734 1.02.1734 1.5075 0l7.995-2.8427c.3903-.1387.8192.0652.9579.4554.1388.3903-.0651.8192-.4554.958l-7.995 2.8426c-.8126.2889-1.6999.2889-2.5125 0l-7.995-2.8426c-.39028-.1388-.59417-.5677-.4554-.958z"/><path d="m13.1106 4.95193c-.7174-.2609-1.5038-.2609-2.2213 0l-7.04859 2.56313c-.21942.07979-.21941.3901 0 .46989l7.04859 2.56315c.7175.2609 1.5039.2609 2.2213 0l7.0486-2.56315c.2195-.07979.2195-.39011 0-.46989zm-2.7339-1.40969c1.0486-.38131 2.198-.38131 3.2466 0l7.0486 2.56313c1.5359.55852 1.5359 2.73075 0 3.28927l-7.0486 2.56316c-1.0486.3813-2.198.3813-3.2466 0l-7.0486-2.56316c-1.53594-.55852-1.53593-2.73076 0-3.28927z"/></g></svg>