<svg xmlns="http://www.w3.org/2000/svg" version="1.1" xmlns:xlink="http://www.w3.org/1999/xlink" width="512" height="512" x="0" y="0" viewBox="0 0 24 24" style="enable-background:new 0 0 512 512" xml:space="preserve" class=""><g><g fill="#000" fill-rule="evenodd" clip-rule="evenodd"><path d="M2.293 12.479a.75.75 0 0 1 .958-.456l7.995 2.843a2.25 2.25 0 0 0 1.508 0l7.995-2.843a.75.75 0 0 1 .502 1.414l-7.995 2.842a3.75 3.75 0 0 1-2.512 0l-7.995-2.842a.75.75 0 0 1-.456-.958z" fill="#008bd8" opacity="1" data-original="#000000"></path><path d="M2.293 16.729a.75.75 0 0 1 .958-.456l7.995 2.843a2.25 2.25 0 0 0 1.508 0l7.995-2.843a.75.75 0 0 1 .502 1.414l-7.995 2.842a3.75 3.75 0 0 1-2.512 0l-7.995-2.842a.75.75 0 0 1-.456-.958zM13.11 4.952a3.25 3.25 0 0 0-2.22 0L3.84 7.515a.25.25 0 0 0 0 .47l7.05 2.563a3.25 3.25 0 0 0 2.22 0l7.05-2.563a.25.25 0 0 0 0-.47zm-2.733-1.41a4.75 4.75 0 0 1 3.246 0l7.049 2.563c1.536.559 1.536 2.731 0 3.29l-7.049 2.563a4.75 4.75 0 0 1-3.246 0L3.328 9.395c-1.536-.559-1.536-2.731 0-3.29z" fill="#008bd8" opacity="1" data-original="#000000"></path></g></g></svg>